<svg xmlns="http://www.w3.org/2000/svg" version="1.1" xmlns:xlink="http://www.w3.org/1999/xlink" xmlns:svgjs="http://svgjs.dev/svgjs" width="1500" height="1500" viewBox="0 0 1500 1500"><rect width="1500" height="1500" fill="#000000"></rect><g transform="matrix(0.6666666666666666,0,0,0.6666666666666666,248.76588200576828,163.44731182795704)"><svg viewBox="0 0 212 248" data-background-color="#ffffff" preserveAspectRatio="xMidYMid meet" height="1754" width="1500" xmlns="http://www.w3.org/2000/svg" xmlns:xlink="http://www.w3.org/1999/xlink"><g id="tight-bounds" transform="matrix(1,0,0,1,0.2638267603470581,0.4000000000000199)"><svg viewBox="0 0 211.4745402248757 247.19999999999996" height="247.19999999999996" width="211.4745402248757"><g><svg viewBox="0 0 211.4745402248757 247.19999999999996" height="247.19999999999996" width="211.4745402248757"><g><svg viewBox="0 0 211.4745402248757 247.19999999999996" height="247.19999999999996" width="211.4745402248757"><g id="textblocktransform"><svg viewBox="0 0 211.4745402248757 247.19999999999996" height="247.19999999999996" width="211.4745402248757" id="textblock"><g><svg viewBox="0 0 211.4745402248757 247.19999999999996" height="247.19999999999996" width="211.4745402248757"><g transform="matrix(1,0,0,1,0,0)"><svg width="211.4745402248757" viewBox="0.82222211112 -36.8125 33.46111122221333 39.1125" height="247.19999999999996" data-palette-color="#003231"><path d="M11.6-36.15L11.6-36.15Q11.4-36.6 11.5-36.6L11.5-36.6Q11.65-36.6 11.85-36.38 12.05-36.15 12.1-36.1L12.1-36.1Q12.6-35.35 13.2-34.48 13.8-33.6 14.35-32.4 14.9-31.2 15.35-29.63 15.8-28.05 16.05-25.9L16.05-25.9Q16.35-23.45 16.18-21.08 16-18.7 15.6-16.3L15.6-16.3Q15.55-16.2 15.5-15.8 15.45-15.4 15.3-15.4L15.3-15.4Q15.2-15.4 15.1-15.78 15-16.15 15-16.3L15-16.3Q14.9-16.85 14.8-17.6 14.7-18.35 14.63-19.18 14.55-20 14.53-20.78 14.5-21.55 14.5-22.15L14.5-22.15Q14.5-22.35 14.48-23.03 14.45-23.7 14.4-24.6 14.35-25.5 14.23-26.58 14.1-27.65 13.95-28.7L13.95-28.7Q14.05-27.15 13.95-25.6 13.85-24.05 13.7-22.48 13.55-20.9 13.45-19.33 13.35-17.75 13.45-16.15L13.45-16.15Q13.6-13.05 14.7-9.85 15.8-6.65 18.2-4.4L18.2-4.4Q18.5-4.1 18.45-4.1L18.45-4.1Q18.35-4.05 18.1-4.2L18.1-4.2Q16.35-5.2 15.2-6.6 14.05-8 13.33-9.65 12.6-11.3 12.25-13.08 11.9-14.85 11.85-16.65L11.85-16.65Q11.85-16.8 11.83-16.93 11.8-17.05 11.8-17.2L11.8-17.2Q10.8-14.35 9.58-11.7 8.35-9.05 7.18-6.6 6-4.15 4.98-1.98 3.95 0.2 3.35 2.05L3.35 2.05Q3.25 2.3 3.2 2.3L3.2 2.3Q3.1 2.3 3.1 2.15 3.1 2 3.1 1.95L3.1 1.95Q3.15-0.4 4.05-2.98 4.95-5.55 6.18-8.33 7.4-11.1 8.75-14.03 10.1-16.95 11.1-20L11.1-20Q11.7-21.95 12.13-24.05 12.55-26.15 12.65-28.25 12.75-30.35 12.5-32.38 12.25-34.4 11.6-36.15ZM17.8-7.35L17.8-7.35Q18.35-6.2 19.25-5.2L19.25-5.2Q19.6-7.3 20.6-9.38 21.6-11.45 22.88-13.55 24.15-15.65 25.55-17.75 26.95-19.85 28.15-22L28.15-22Q29.05-23.55 29.68-25.35 30.3-27.15 30.58-29.03 30.85-30.9 30.73-32.75 30.6-34.6 29.95-36.25L29.95-36.25Q29.8-36.5 29.9-36.6L29.9-36.6Q30-36.7 30.23-36.48 30.45-36.25 30.5-36.15L30.5-36.15Q31.1-35.3 31.48-33.93 31.85-32.55 32.02-30.88 32.2-29.2 32.2-27.35 32.2-25.5 32.05-23.65L32.05-23.65Q31.85-21.2 31.33-18.3 30.8-15.4 30.05-13L30.05-13Q30-12.9 29.88-12.55 29.75-12.2 29.6-12.2L29.6-12.2Q29.5-12.25 29.45-12.63 29.4-13 29.4-13.1L29.4-13.1Q29.4-13.65 29.43-14.43 29.45-15.2 29.5-16.03 29.55-16.85 29.63-17.63 29.7-18.4 29.8-18.95L29.8-18.95Q29.85-19.25 29.98-20.33 30.1-21.4 30.2-22.75L30.2-22.75Q29.6-21.35 29.25-20.25 28.9-19.15 28.65-18.1 28.4-17.05 28.23-15.9 28.05-14.75 27.9-13.2L27.9-13.2Q27.75-11.65 27.78-9.95 27.8-8.25 28.13-6.6 28.45-4.95 29.08-3.38 29.7-1.8 30.7-0.5L30.7-0.5Q30.9-0.2 30.8-0.15L30.8-0.15Q30.7-0.1 30.55-0.25L30.55-0.25Q28.95-1.55 28.03-3.18 27.1-4.8 26.65-6.6 26.2-8.4 26.18-10.28 26.15-12.15 26.35-13.95L26.35-13.95Q26.45-14.6 26.53-15.25 26.6-15.9 26.7-16.6L26.7-16.6Q25.55-14.75 24.4-13 23.25-11.25 22.25-9.53 21.25-7.8 20.48-6.13 19.7-4.45 19.3-2.8L19.3-2.8Q19.2-2.55 19.2-2.55L19.2-2.55Q19.1-2.55 19.1-2.75 19.1-2.95 19.1-3L19.1-3Q19.1-3.4 19.1-3.8 19.1-4.2 19.2-4.6L19.2-4.6Q18.8-4.8 18.5-4.98 18.2-5.15 17.93-5.4 17.65-5.65 17.38-6 17.1-6.35 16.8-6.9L16.8-6.9Q16.55-7.4 16.3-8.1 16.05-8.8 15.88-9.47 15.7-10.15 15.68-10.63 15.65-11.1 15.8-11.1L15.8-11.1Q15.9-11.1 16.03-10.93 16.15-10.75 16.3-10.5 16.45-10.25 16.55-10 16.65-9.75 16.7-9.65L16.7-9.65Q16.95-9.05 17.23-8.47 17.5-7.9 17.8-7.35ZM18.85-17.1L18.85-16.6Q19.95-18.75 21.13-20.78 22.3-22.8 23-24L23-24Q24.2-26.15 25.5-28.23 26.8-30.3 27.75-31.9L27.75-31.9Q27.85-32.15 27.98-32.35 28.1-32.55 28.2-32.45L28.2-32.45Q28.3-32.45 28.25-32.2 28.2-31.95 28.15-31.7L28.15-31.7Q27.45-28.1 25.63-24.9 23.8-21.7 21.8-18.45L21.8-18.45Q21.1-17.35 20.58-16.63 20.05-15.9 19.68-15.23 19.3-14.55 19.05-13.75 18.8-12.95 18.7-11.7L18.7-11.7Q18.9-12.25 19.15-12.75 19.4-13.25 19.65-13.7L19.65-13.7Q21.05-16.1 22.8-18.5 24.55-20.9 26.25-23L26.25-23Q26.35-23.1 26.63-23.43 26.9-23.75 27-23.7L27-23.7Q27.1-23.65 26.98-23.25 26.85-22.85 26.8-22.65L26.8-22.65Q26.55-22.1 26.18-21.3 25.8-20.5 25.38-19.68 24.95-18.85 24.5-18.07 24.05-17.3 23.7-16.8L23.7-16.8Q23.5-16.5 22.85-15.6 22.2-14.7 21.45-13.35 20.7-12 19.98-10.3 19.25-8.6 18.9-6.7L18.9-6.7Q18.75-7 18.53-7.45 18.3-7.9 18-8.9L18-8.9Q17.1-12.05 17.03-15.28 16.95-18.5 17-21.9L17-21.9Q17.05-24.05 17.03-26.2 17-28.35 16.3-30.75L16.3-30.75Q16.25-30.95 16.3-31.05L16.3-31.05Q16.4-31.05 16.6-30.75L16.6-30.75Q17.5-29.8 17.95-27.98 18.4-26.15 18.6-24.13 18.8-22.1 18.82-20.18 18.85-18.25 18.85-17.1L18.85-17.1ZM5.7-20.95L5.7-20.95Q6.55-23.55 7.63-26.2 8.7-28.85 9.5-30.95L9.5-30.95Q9.6-31.2 9.73-31.45 9.85-31.7 9.95-31.65L9.95-31.65Q10.05-31.65 10.03-31.33 10-31 10-30.75L10-30.75Q9.55-26.65 8.2-22.6 6.85-18.55 5.2-14.6L5.2-14.6Q4.2-12.1 3.05-9.58 1.9-7.05 1.15-4.1L1.15-4.1Q1.05-3.85 1.07-3.8 1.1-3.75 1.05-3.75L1.05-3.75Q0.9-3.85 0.9-4.2L0.9-4.2Q0.65-5.7 1.2-7.98 1.75-10.25 2.6-12.68 3.45-15.1 4.35-17.32 5.25-19.55 5.7-20.95ZM3.55-9.05L3.55-9.05Q4.8-11.9 6.25-14.93 7.7-17.95 9.05-20.7L9.05-20.7Q9.1-20.85 9.33-21.25 9.55-21.65 9.75-21.6L9.75-21.6Q9.85-21.6 9.8-21.15 9.75-20.7 9.65-20.5L9.65-20.5Q9.5-19.8 9.25-18.82 9-17.85 8.68-16.82 8.35-15.8 8-14.83 7.65-13.85 7.35-13.2L7.35-13.2Q7.2-12.9 6.83-11.93 6.45-10.95 5.93-9.6 5.4-8.25 4.83-6.73 4.25-5.2 3.75-3.83 3.25-2.45 2.88-1.38 2.5-0.3 2.45 0.15L2.45 0.15Q2.35 0.65 2.25 0.65L2.25 0.65Q2.15 0.65 2.13 0.45 2.1 0.25 2.05 0.15L2.05 0.15Q1.8-0.45 1.83-1.6 1.85-2.75 2.1-4.05 2.35-5.35 2.73-6.7 3.1-8.05 3.55-9.05ZM33.35-13.35L33.35-13.35Q33.1-11.1 32.58-8.85 32.05-6.6 31.65-4.85L31.65-4.85Q31.45-4.2 31.35-4.25L31.35-4.25Q31.25-4.25 31.23-4.48 31.2-4.7 31.15-4.95L31.15-4.95Q30.75-8.3 31.25-11.65 31.75-15 32.35-18.5L32.35-18.5Q32.75-20.6 33-22.83 33.25-25.05 33-27.6L33-27.6Q33-27.8 33.1-27.9L33.1-27.9Q33.2-27.9 33.23-27.78 33.25-27.65 33.35-27.6L33.35-27.6Q34.1-26.5 34.23-24.58 34.35-22.65 34.2-20.55 34.05-18.45 33.77-16.5 33.5-14.55 33.35-13.35ZM10.7-32.45L10.7-32.45Q10.6-33.5 10.43-34.4 10.25-35.3 10-36.25L10-36.25Q9.95-36.35 9.95-36.5 9.95-36.65 10-36.65L10-36.65Q10.15-36.65 10.3-36.5L10.3-36.5 10.5-36.3Q11.05-35.55 11.4-34.83 11.75-34.1 11.85-32.45L11.85-32.45Q11.9-31.8 11.85-30.85 11.8-29.9 11.68-29.05 11.55-28.2 11.38-27.6 11.2-27 11.05-27.05L11.05-27.05Q10.95-27.05 10.9-27.33 10.85-27.6 10.83-27.95 10.8-28.3 10.8-28.68 10.8-29.05 10.8-29.2L10.8-29.2Q10.8-30.05 10.8-30.83 10.8-31.6 10.7-32.45ZM29-33.1L29-33.1Q28.95-34 28.83-34.8 28.7-35.6 28.45-36.45L28.45-36.45Q28.4-36.55 28.38-36.7 28.35-36.85 28.45-36.8L28.45-36.8Q28.55-36.7 28.63-36.65 28.7-36.6 28.8-36.55L28.8-36.55 28.9-36.45Q29.45-35.75 29.78-35.1 30.1-34.45 30.15-32.95L30.15-32.95Q30.15-32.4 30.03-31.55 29.9-30.7 29.73-29.93 29.55-29.15 29.33-28.63 29.1-28.1 28.9-28.2L28.9-28.2Q28.8-28.25 28.8-28.53 28.8-28.8 28.8-29.13 28.8-29.45 28.85-29.75 28.9-30.05 28.9-30.2L28.9-30.2Q29-31 29.03-31.7 29.05-32.4 29-33.1ZM30.75-3.5L30.75-3.5Q31.05-2.65 31.43-1.95 31.8-1.25 32.2-0.55L32.2-0.55Q32.25-0.5 32.3-0.38 32.35-0.25 32.25-0.25L32.25-0.25Q32.1-0.25 32.02-0.3 31.95-0.35 31.85-0.4L31.85-0.4Q31.75-0.45 31.7-0.5L31.7-0.5Q31-1.05 30.55-1.55 30.1-2.05 29.65-3.35L29.65-3.35Q29.5-3.85 29.35-4.6 29.2-5.35 29.15-6.05 29.1-6.75 29.15-7.25 29.2-7.75 29.4-7.75L29.4-7.75Q29.45-7.75 29.55-7.53 29.65-7.3 29.73-7.03 29.8-6.75 29.88-6.48 29.95-6.2 30-6.1L30-6.1Q30.25-5.4 30.4-4.75 30.55-4.1 30.75-3.5Z" opacity="1" transform="matrix(1,0,0,1,0,0)" fill="#ffffff" class="wordmark-text-0" data-fill-palette-color="primary" id="text-0"></path></svg></g></svg></g></svg></g></svg></g></svg></g><defs></defs></svg><rect width="211.4745402248757" height="247.19999999999996" fill="none" stroke="none" visibility="hidden"></rect></g></svg></g></svg>